<?xml version="1.0" encoding="utf-8"?>
<!-- Generator: Adobe Illustrator 18.0.0, SVG Export Plug-In . SVG Version: 6.00 Build 0)  -->
<!DOCTYPE svg PUBLIC "-//W3C//DTD SVG 1.1//EN" "http://www.w3.org/Graphics/SVG/1.1/DTD/svg11.dtd">
<svg version="1.1" id="Layer_1" xmlns="http://www.w3.org/2000/svg" xmlns:xlink="http://www.w3.org/1999/xlink" x="0px" y="0px"
	 viewBox="0 0 20 20" enable-background="new 0 0 20 20" xml:space="preserve">
<g>
	<path fill="#F6F6F6" d="M10,0.5c-5.1,0-9.3,4.2-9.3,9.3c0,5.1,4.2,9.3,9.3,9.3s9.3-4.2,9.3-9.3C19.3,4.6,15.1,0.5,10,0.5z M10,17.2
		c-4.1,0-7.5-3.4-7.5-7.5c0-4.1,3.3-7.5,7.5-7.5s7.5,3.3,7.5,7.5C17.5,13.9,14.1,17.2,10,17.2z"/>
</g>
<g>
	<g>
		<path fill="#F6F6F6" d="M15.9,9.8c0,0.4-0.3,0.7-0.7,0.7h-4.6V15c0,0.4-0.3,0.7-0.7,0.7S9.3,15.4,9.3,15v-4.6H4.8
			c-0.4,0-0.7-0.3-0.7-0.7c0-0.4,0.3-0.7,0.7-0.7h4.6V4.5c0-0.4,0.3-0.7,0.7-0.7s0.7,0.3,0.7,0.7v4.6h4.6
			C15.6,9.1,15.9,9.4,15.9,9.8z"/>
	</g>
</g>
</svg>
