<?xml version="1.0" encoding="utf-8"?>
<!-- Generator: Adobe Illustrator 18.0.0, SVG Export Plug-In . SVG Version: 6.00 Build 0)  -->
<!DOCTYPE svg PUBLIC "-//W3C//DTD SVG 1.1//EN" "http://www.w3.org/Graphics/SVG/1.1/DTD/svg11.dtd">
<svg version="1.1" id="Layer_1" xmlns="http://www.w3.org/2000/svg" xmlns:xlink="http://www.w3.org/1999/xlink" x="0px" y="0px"
	 viewBox="0 0 32 32" enable-background="new 0 0 32 32" xml:space="preserve">
<g id="icomoon-ignore">
	<line fill="none" stroke="#449FDB" x1="0" y1="0" x2="0" y2="0"/>
</g>
<path fill="#F6F6F6" d="M25,4H7C5.3,4,4,5.3,4,7v1h24V7C28,5.3,26.7,4,25,4z M19.8,2l0.4,3.2h-8.4L12.2,2C12.2,2,19.8,2,19.8,2z
	 M20,0h-8c-0.8,0-1.6,0.7-1.7,1.5L9.7,5.7C9.6,6.5,10.2,7.2,11,7.2h10c0.8,0,1.4-0.7,1.3-1.5l-0.6-4.2C21.6,0.7,20.8,0,20,0L20,0
	L20,0z M25.5,10h-19c-1.1,0-1.9,0.9-1.8,2l1.6,18c0.1,1.1,1.1,2,2.2,2h15c1.1,0,2.1-0.9,2.2-2l1.6-18C27.4,10.9,26.6,10,25.5,10z
	 M12,28H9L8,14h4V28z M18,28h-4V14h4V28z M23,28h-3V14h4L23,28z"/>
</svg>
